<?xml version="1.0" encoding="UTF-8"?>
<svg id="Layer_1" xmlns="http://www.w3.org/2000/svg" viewBox="0 0 220 23.09">
  <defs>
    <style>
      .cls-1 {
        fill: #fff;
      }
    </style>
  </defs>
  <path class="cls-1" d="M0,15.19h8.58c-1.23-2.2-2.32-4.24-3.51-6.22-.53-.88-.57-1.57.01-2.46,1.14-1.74,2.08-3.6,3.23-5.33.31-.47,1.05-.92,1.6-.93,5.06-.07,10.12-.06,15.18-.02.47,0,1.15.19,1.36.52,1.41,2.24,2.72,4.53,4.2,7.03h-8.57c1.32,2.29,2.46,4.37,3.7,6.39.49.8.46,1.38-.03,2.15-1.11,1.76-2.14,3.57-3.12,5.4-.46.85-1,1.19-2.01,1.18-5-.07-10.01-.05-15.02-.1-.47,0-1.15-.17-1.36-.49-1.42-2.24-2.73-4.54-4.25-7.11ZM13.02,22.53c2.9-4.91,5.64-9.52,8.35-14.15.14-.24.22-.66.1-.87-1.23-2.26-2.5-4.5-3.84-6.88-.36.47-.58.7-.74.96-2.51,4.27-5.02,8.54-7.48,12.83-.19.34-.19.95-.01,1.3,1.1,2.18,2.28,4.32,3.62,6.81Z"/>
  <g>
    <path class="cls-1" d="M53.82,23.09c-1.45,0-2.83-.12-4.12-.36-1.3-.24-2.44-.63-3.43-1.19-.99-.55-1.76-1.28-2.32-2.19-.56-.91-.84-2.02-.84-3.35,0-.09,0-.18.02-.28.01-.1.02-.18.02-.24h4.58c-.02.07-.04.16-.05.28-.01.12-.02.24-.02.37,0,.69.25,1.27.75,1.74.5.47,1.21.81,2.14,1.04.93.23,2.02.34,3.28.34.67,0,1.3-.03,1.9-.1.6-.07,1.14-.17,1.64-.31.5-.14.93-.31,1.28-.52.36-.21.63-.45.83-.75.19-.29.29-.61.29-.96,0-.61-.22-1.09-.67-1.46-.44-.37-1.05-.68-1.82-.93-.77-.25-1.63-.47-2.58-.67-.95-.19-1.94-.39-2.96-.6-1.02-.21-2.01-.47-2.97-.8-.96-.32-1.82-.73-2.58-1.22-.76-.49-1.36-1.11-1.82-1.87-.45-.76-.68-1.68-.68-2.76s.24-1.95.71-2.74c.48-.79,1.16-1.45,2.05-1.98.89-.53,1.96-.93,3.21-1.2,1.26-.27,2.66-.41,4.22-.41s2.88.14,4.11.42c1.22.28,2.26.69,3.12,1.23.86.54,1.5,1.21,1.95,2.01.44.8.67,1.73.67,2.79v.45h-4.48v-.39c0-.54-.23-1.01-.68-1.41-.45-.4-1.07-.71-1.85-.94-.78-.23-1.68-.34-2.7-.34-1.28,0-2.33.09-3.17.28-.83.18-1.46.45-1.87.8-.41.35-.62.76-.62,1.23,0,.52.23.95.68,1.28.45.34,1.06.61,1.82.83.76.22,1.62.42,2.58.6.96.18,1.95.39,2.97.62,1.02.23,2,.5,2.96.81.95.31,1.81.72,2.58,1.22.77.5,1.37,1.12,1.82,1.85.44.74.67,1.63.67,2.7,0,1.71-.45,3.08-1.35,4.11-.9,1.03-2.15,1.78-3.75,2.24-1.6.47-3.44.7-5.52.7Z"/>
    <path class="cls-1" d="M68.89,22.7V.39h13.77c1.54,0,2.84.3,3.91.91,1.07.61,1.89,1.45,2.47,2.53.57,1.08.86,2.35.86,3.8s-.29,2.69-.88,3.78c-.58,1.09-1.43,1.95-2.53,2.57-1.1.62-2.45.93-4.03.93h-9v7.79h-4.58ZM73.47,11.04h8.25c1.13,0,2-.3,2.61-.91.62-.61.93-1.44.93-2.5,0-.71-.14-1.32-.42-1.82-.28-.5-.68-.88-1.19-1.15-.51-.27-1.15-.41-1.93-.41h-8.25v6.79Z"/>
    <path class="cls-1" d="M93.67,22.7V.39h19.97v3.86h-15.39v5.13h13.71v3.87h-13.71v5.59h15.62v3.86h-20.2Z"/>
    <path class="cls-1" d="M116.3,22.7L126.21.39h5.46l9.94,22.31h-5l-1.95-4.55h-11.69l-1.95,4.55h-4.71ZM124.59,14.39h8.41l-2.4-5.75c-.11-.24-.24-.56-.41-.96-.16-.4-.32-.82-.49-1.27-.16-.44-.32-.86-.47-1.23-.15-.38-.26-.65-.32-.83h-.19c-.17.43-.37.93-.58,1.49-.22.56-.42,1.1-.62,1.61-.19.51-.36.9-.49,1.19l-2.44,5.75Z"/>
    <path class="cls-1" d="M144.91,22.7V.39h4.58v11.17L161.28.39h5.81l-9.61,9.16,9.81,13.15h-5.68l-7.37-10.17-4.74,3.96v6.2h-4.58Z"/>
    <path class="cls-1" d="M170.93,22.7V.39h14.68c1.62,0,2.96.3,3.99.91,1.04.61,1.82,1.43,2.34,2.47.52,1.04.78,2.23.78,3.57s-.33,2.65-.99,3.78c-.66,1.14-1.66,2.01-3,2.61l4.68,8.96h-5.1l-4.09-8.12h-8.7v8.12h-4.58ZM175.51,10.75h9.26c1.06,0,1.87-.3,2.44-.91.56-.61.84-1.42.84-2.44,0-.67-.12-1.24-.37-1.7-.25-.47-.62-.82-1.1-1.07-.49-.25-1.09-.37-1.8-.37h-9.26v6.5Z"/>
    <path class="cls-1" d="M197.53,22.7V.39h14.68c1.62,0,2.96.3,3.99.91,1.04.61,1.82,1.43,2.34,2.47.52,1.04.78,2.23.78,3.57s-.33,2.65-.99,3.78c-.66,1.14-1.66,2.01-3,2.61l4.68,8.96h-5.1l-4.09-8.12h-8.7v8.12h-4.58ZM202.11,10.75h9.26c1.06,0,1.87-.3,2.44-.91.56-.61.84-1.42.84-2.44,0-.67-.12-1.24-.37-1.7-.25-.47-.62-.82-1.1-1.07-.49-.25-1.09-.37-1.8-.37h-9.26v6.5Z"/>
  </g>
</svg>